PathFileType	4	(X/Y/Z)	/Volumes/GoogleDrive/My Drive/Research/Stanford/Projects/Digital Athlete Project/Sprinting/Sprint Simulation/sprinter/subjects/JA1/experimental_data/TRC/run0500cms.trc
DataRate	CameraRate	NumFrames	NumMarkers	Units	OrigDataRate	OrigDataStartFrame	OrigNumFrames
250.000000	250.000000	6	53	mm	250.000000	214	569
Frame#	Time	C7			RSH			LSH			MAN			T7			LARM			LELB			LFOREARM			LWR			RARM			RELB			RFOREARM			RWR			RASI			LASI			SACR			P1			P2			P3			LTHLP			LTHLD			LTHAP			LLEPI			LPAT			LTIAP			LTIAD			LTILAT			LLMAL			LHEEL			LMFS			LMFL			LP1MT			LTOE			LP5MT			RTHLP			RTHLD			RTHAP			RTHAD			RLEPI			RPAT			RTIAP			RTIAD			RTILAT			RLMAL			RHEEL			RMFS			RMFL			RP1MT			RTOE			RP5MT			LTHAD			x52			x53			
		X1	Y1	Z1	X2	Y2	Z2	X3	Y3	Z3	X4	Y4	Z4	X5	Y5	Z5	X6	Y6	Z6	X7	Y7	Z7	X8	Y8	Z8	X9	Y9	Z9	X10	Y10	Z10	X11	Y11	Z11	X12	Y12	Z12	X13	Y13	Z13	X14	Y14	Z14	X15	Y15	Z15	X16	Y16	Z16	X17	Y17	Z17	X18	Y18	Z18	X19	Y19	Z19	X20	Y20	Z20	X21	Y21	Z21	X22	Y22	Z22	X23	Y23	Z23	X24	Y24	Z24	X25	Y25	Z25	X26	Y26	Z26	X27	Y27	Z27	X28	Y28	Z28	X29	Y29	Z29	X30	Y30	Z30	X31	Y31	Z31	X32	Y32	Z32	X33	Y33	Z33	X34	Y34	Z34	X35	Y35	Z35	X36	Y36	Z36	X37	Y37	Z37	X38	Y38	Z38	X39	Y39	Z39	X40	Y40	Z40	X41	Y41	Z41	X42	Y42	Z42	X43	Y43	Z43	X44	Y44	Z44	X45	Y45	Z45	X46	Y46	Z46	X47	Y47	Z47	X48	Y48	Z48	X49	Y49	Z49	X50	Y50	Z50	X51	Y51	Z51	X52	Y52	Z52	X53	Y53	Z53	
214	0.856000	-1172.654419	1486.210083	176.217957	-1117.708008	1471.049805	341.566742	-1157.840820	1470.861084	5.619508	-1040.746704	1375.625610	165.124008	-1249.725220	1303.023193	179.730194	-1263.991455	1316.224854	-84.576500	-1352.557251	1211.172729	-117.547531	-1325.196899	1064.982666	-116.275795	-1324.381226	934.836487	-111.974388	-1123.886841	1298.139648	453.036499	-1130.396362	1176.053223	512.825256	-1002.984985	1161.592163	448.886414	-891.445923	1144.532715	393.560120	-1094.442871	1005.922852	264.919403	-1098.502930	1014.605591	52.328552	-1276.508667	1055.745239	163.497299	-1288.423828	1027.879639	109.689293	-1292.833984	1027.465332	216.094437	-1319.460938	972.141785	160.400269	-1010.755981	782.305298	-23.193363	-916.737488	721.084412	-7.289389	-934.931763	866.909973	74.515244	-848.409973	645.366272	28.922470	-763.510986	657.701294	97.758415	-956.318970	538.669495	111.961067	-1081.149658	483.219330	119.326187	-1032.953491	536.794617	37.360218	-1223.852051	438.683105	63.746258	-1286.376831	482.382355	108.118958	-1189.255859	342.711365	124.800423	-1223.126465	356.501099	58.857811	-1215.694702	267.106812	158.502686	-1183.570068	244.370529	122.684891	-1226.482300	282.798004	34.615719	-1201.798706	725.290894	337.341095	-1201.711304	613.927856	315.355377	-1084.343384	695.774353	258.434601	-1102.717529	597.770813	242.878632	-1225.576172	467.888000	278.652893	-1142.073364	450.901550	225.114777	-1340.223022	300.782318	176.610504	-1436.494141	216.258392	155.310272	-1378.239868	305.414917	256.578857	-1532.974976	137.995697	208.346710	-1612.385986	140.578354	163.153839	-1438.330811	104.255928	162.845322	-1491.072998	85.475037	216.824554	-1400.971558	50.558270	121.601357	-1365.072754	52.561646	157.568176	-1434.072754	40.332470	246.086273	-846.453979	794.231812	77.966934	-829.069336	1134.992432	362.619690	-1323.966675	868.689697	-109.788193
215	0.860000	-1152.418945	1488.649292	176.059937	-1097.556152	1474.579224	341.282867	-1138.309326	1473.365967	6.032810	-1020.185547	1378.911987	164.664185	-1228.041748	1304.696655	181.183197	-1246.105957	1320.137939	-83.686928	-1336.275879	1216.340210	-116.420113	-1310.733398	1070.232422	-115.454720	-1311.722168	939.875122	-111.199692	-1100.545532	1301.426758	452.493774	-1104.177246	1179.189575	512.385559	-978.055664	1170.910645	446.397186	-866.695190	1159.845825	389.575012	-1071.289307	1006.920532	265.293640	-1076.225342	1017.649780	52.611996	-1253.664551	1058.476929	164.455856	-1265.966675	1031.108887	110.299751	-1269.508545	1029.965332	216.969208	-1296.488770	975.069092	160.945374	-987.454407	788.184692	-23.421551	-892.659973	728.251709	-7.274665	-913.716980	873.763611	74.799026	-823.006104	652.942322	29.012308	-738.156128	667.267212	97.602905	-924.057861	541.365234	114.685760	-1049.677612	479.292633	118.659103	-1003.636963	536.010559	38.712273	-1190.021362	429.153290	65.988029	-1253.953003	469.242432	111.614349	-1149.562012	334.949524	125.190697	-1185.368164	347.196472	60.165928	-1171.453857	257.795959	158.489807	-1138.779175	236.589676	122.354233	-1185.696289	273.358734	35.245399	-1185.225830	727.488525	337.063324	-1188.591064	616.222717	315.033813	-1069.786499	695.125183	256.462036	-1089.418823	598.449280	242.405624	-1217.907715	471.029114	278.834686	-1134.524414	453.442413	225.862411	-1334.505615	304.529907	177.653000	-1432.603882	220.952744	156.893600	-1372.544556	309.377686	257.205292	-1529.781494	143.210770	210.119431	-1608.376953	148.010880	165.404083	-1435.696289	106.060173	163.902405	-1488.857544	88.330612	217.712341	-1400.993042	50.818714	121.570396	-1365.446045	52.901985	157.082504	-1433.737061	40.659073	246.212921	-823.350586	802.372925	77.750282	-804.418457	1153.657959	357.798065	-1312.224731	873.621033	-109.037079
216	0.864000	-1132.023315	1491.366333	176.919586	-1077.370483	1478.134644	341.047180	-1118.537598	1476.123291	6.325729	-999.739624	1382.332031	164.046234	-1206.640869	1306.277222	182.608032	-1227.438477	1324.096313	-83.288712	-1319.485596	1221.831543	-115.281761	-1296.212769	1075.469727	-114.293274	-1298.622437	945.194336	-110.265640	-1077.251221	1304.983032	451.911163	-1079.036621	1182.321045	511.121216	-953.519287	1180.357056	443.818512	-842.839172	1175.167480	385.486938	-1048.078125	1007.998657	265.502441	-1054.034302	1020.729370	52.884121	-1230.785889	1061.711304	165.160797	-1243.339600	1034.280884	111.095329	-1246.141846	1032.715576	217.595718	-1274.040894	978.090698	161.452530	-965.511414	794.004761	-23.194391	-869.015503	735.051758	-7.079331	-891.315735	880.338501	74.435120	-797.813110	660.065186	28.774534	-713.203430	676.274048	97.322334	-895.001770	543.092590	114.185394	-1016.454224	475.756592	120.167885	-974.306580	535.142273	39.903805	-1155.752808	419.542389	68.195862	-1220.786011	456.283020	114.792839	-1109.558716	327.255280	125.814056	-1147.353516	337.980591	61.498161	-1126.702759	248.854660	159.144577	-1093.459106	229.774811	122.201530	-1145.838013	263.592957	37.435249	-1168.681641	730.143372	336.686890	-1175.312622	618.951721	314.738495	-1054.469971	694.974976	255.358826	-1081.198853	597.533997	237.273407	-1209.483154	474.881622	279.405884	-1128.165039	455.322479	224.985901	-1331.099365	309.407837	177.737030	-1428.202271	226.270721	158.336212	-1366.841309	313.960083	258.008209	-1526.083496	148.812973	212.087799	-1603.734253	155.950668	168.010849	-1432.553833	108.178322	165.091187	-1485.722534	91.437698	219.217865	-1400.849121	51.052513	121.663132	-1365.674438	53.072353	156.753235	-1433.230225	41.030529	246.332825	-800.194702	810.018188	77.274040	-780.942932	1172.265259	352.865845	-1299.847168	878.981812	-108.218590
217	0.868000	-1112.088135	1493.817383	177.247940	-1057.193970	1481.664307	340.695251	-1098.863159	1478.787231	6.620259	-979.290161	1385.946289	163.701981	-1185.084351	1308.349976	184.039688	-1209.215576	1328.500610	-82.623863	-1303.326172	1227.240601	-113.753365	-1281.469238	1080.786865	-113.014069	-1285.122925	950.664368	-109.155212	-1054.106201	1308.576538	451.221741	-1054.024536	1185.624878	509.863464	-930.688660	1189.815918	440.027832	-819.969666	1190.457764	381.241577	-1024.728882	1009.255005	265.658936	-1031.977539	1023.934326	53.414883	-1207.645508	1064.789917	166.023819	-1220.497803	1037.271362	111.761795	-1222.403198	1035.403076	218.279709	-1250.755859	981.380615	162.106384	-942.508362	799.790588	-23.331522	-845.298035	741.470093	-7.195177	-869.098145	886.695374	74.171013	-773.207520	666.666321	28.878517	-688.601868	684.756226	96.767212	-865.023315	544.678162	114.816963	-983.575439	471.873108	121.139633	-944.988586	533.931763	40.955280	-1121.146851	409.919891	70.444008	-1188.125854	442.652283	118.771805	-1069.579834	320.123840	126.690277	-1108.906738	328.881714	63.165668	-1081.981567	240.526154	159.706726	-1048.475830	223.453094	122.558777	-1103.917725	254.880783	38.496124	-1151.977417	733.176086	336.503235	-1162.187500	622.287109	314.350525	-1039.335571	695.251648	254.129089	-1068.057861	599.385437	236.813538	-1201.807983	478.957886	278.880096	-1122.215210	457.614838	223.650146	-1325.318848	313.903351	178.741959	-1422.591309	232.215668	159.577957	-1360.563843	319.893158	259.290375	-1521.324707	154.801102	214.369278	-1598.011597	164.167145	170.891327	-1431.802734	106.471970	163.042160	-1482.676514	94.072685	220.102676	-1400.915527	51.219673	121.532661	-1365.516846	53.409077	156.486526	-1432.469971	41.398956	246.494919	-777.092896	817.197327	76.646225	-758.051697	1190.816650	348.366211	-1286.979858	884.529602	-107.193947
218	0.872000	-1091.350830	1496.373535	177.402161	-1036.949585	1485.217896	340.323456	-1079.203369	1481.639648	6.988706	-958.696716	1389.574341	163.164413	-1163.475464	1310.137451	185.400146	-1191.322021	1332.942993	-81.763145	-1286.316284	1232.876465	-112.825325	-1267.175903	1086.068970	-111.119110	-1271.601440	956.070190	-107.725456	-1030.950562	1312.278809	450.646301	-1028.680298	1188.984497	509.077332	-905.739868	1199.484131	438.924896	-796.814209	1205.718506	378.183685	-1001.416504	1010.522095	265.706696	-1009.497559	1027.079102	53.421032	-1184.645996	1067.932129	166.787430	-1197.939453	1040.833618	112.520126	-1199.371948	1038.564209	219.334229	-1227.718506	984.460876	162.990021	-919.233276	805.437378	-23.633139	-821.956055	747.455383	-7.028643	-846.618103	892.790894	73.839828	-748.998108	672.700867	28.758862	-664.304260	692.676392	96.215439	-835.631836	545.889160	114.812096	-951.147705	467.779999	121.445526	-918.646423	531.824890	43.819412	-1086.065552	400.207703	72.594681	-1153.620972	429.544983	121.722153	-1029.391357	313.103699	127.584587	-1069.869507	320.194031	64.820145	-1037.275757	232.735474	160.520554	-1003.513123	217.497192	122.826622	-1061.282715	246.557144	39.379101	-1135.117432	736.694214	336.318634	-1149.062134	626.194763	314.186768	-1023.966553	695.916199	253.306534	-1055.167236	600.876587	235.906982	-1193.008423	484.211243	279.373016	-1115.970215	460.835114	222.135025	-1318.591431	319.326660	180.012207	-1416.552612	237.600464	161.768600	-1354.000732	326.749969	260.995728	-1515.573242	161.290176	216.699814	-1591.476318	172.772141	173.832916	-1428.168335	107.914810	164.131271	-1478.855957	97.413139	221.537140	-1400.585449	51.495407	121.783722	-1365.676758	53.379784	156.209793	-1431.468994	41.898777	246.827835	-754.120178	823.792114	76.160805	-735.899170	1209.204956	344.215057	-1273.850708	889.998291	-106.000633
219	0.876000	-1071.060181	1499.160767	177.841766	-1016.735657	1488.944580	339.933472	-1059.213257	1484.479736	7.027721	-938.046265	1393.194702	162.419632	-1141.947388	1311.893799	186.682114	-1173.680786	1337.695190	-80.744873	-1270.477661	1238.494751	-110.598984	-1250.777954	1091.912354	-110.728821	-1256.910522	961.992859	-106.723343	-1007.947266	1315.975098	449.979797	-1003.821899	1192.497559	507.836639	-882.083557	1209.068726	436.995636	-774.623657	1220.777832	375.008209	-977.853333	1011.908203	265.634369	-987.276367	1030.347290	53.832287	-1161.037720	1071.212402	167.574402	-1174.951660	1043.953979	113.082817	-1175.390259	1041.482056	219.868073	-1204.708008	987.616577	163.914566	-896.147339	810.839966	-23.837803	-798.787415	753.113953	-7.032842	-824.128540	898.582397	73.384766	-725.006287	678.354431	28.595732	-640.449890	700.015198	95.411629	-805.975952	547.166443	115.588799	-917.442871	462.815216	122.521774	-888.733398	530.211670	44.248619	-1050.460449	390.488708	74.970398	-1118.879150	416.525085	124.814445	-989.145569	306.089050	128.997803	-1030.458862	311.557953	66.389465	-992.636963	225.228195	161.538284	-958.419800	211.783173	123.124847	-1018.006958	238.072617	40.329494	-1118.228149	740.599792	336.184113	-1135.880859	630.544006	314.007629	-1008.124756	697.068665	252.968231	-1042.444824	602.914062	235.142899	-1184.072021	490.018738	279.671387	-1107.858398	464.899170	221.829819	-1311.195435	325.074829	181.628281	-1408.384155	243.425797	163.144928	-1347.104980	334.188080	262.731262	-1509.209473	167.823517	219.055511	-1583.914307	181.685120	176.670074	-1423.819824	109.244591	165.431046	-1474.431519	100.707863	222.931122	-1399.918457	51.768002	121.990753	-1365.486816	53.525978	156.007660	-1430.480591	42.404270	247.027802	-731.280518	829.984924	75.688881	-714.528320	1227.325928	340.342651	-1260.027466	895.961304	-104.687553
